<svg xmlns="http://www.w3.org/2000/svg" xmlns:xlink="http://www.w3.org/1999/xlink" id="Layer_1" width="100" height="100" x="0" y="0" enable-background="new 0 0 100 100" version="1.0" viewBox="0 0 100 100" xml:space="preserve"><g><path d="M76.002,52.608c0,14.32-11.681,26.001-26.001,26.001c-14.4,0-26-11.681-26-26.001c0-14.4,11.6-26,26-26 C64.321,26.608,76.002,38.208,76.002,52.608z M54.641,39.168c0-2.48-2-4.48-4.56-4.48c-2.56,0-4.56,2-4.56,4.48 c0,2.56,2,4.64,4.56,4.64C52.641,43.808,54.641,41.808,54.641,39.168z M54.001,45.968h-7.76v22.481h7.76V45.968z"/></g></svg>