<svg xmlns="http://www.w3.org/2000/svg" xmlns:xlink="http://www.w3.org/1999/xlink" id="Layer_1" width="100" height="100" x="0" y="0" enable-background="new 0 0 100 100" version="1.0" viewBox="0 0 100 100" xml:space="preserve"><g><path d="M57.281,62.129c-4.16,0.4-8.32-0.721-11.92-3.2l-2.56,8.24l-8.24,9.841c-0.72,0.879-1.76,1.119-2.8,1.199 c-2.56,0.24-4.96-1.92-5.2-4.4c-0.08-1.039,0.08-2.16,0.72-2.959l8.16-9.841l7.76-4c-3.12-3.04-4.88-7.121-5.28-11.201 c-0.8-9.68,6.64-18.32,16.24-19.2c9.601-0.8,18.4,6.56,19.28,16.16c0.4,4.64-0.88,9.281-4,13.041 C66.242,59.568,61.842,61.729,57.281,62.129z M56.722,55.328c5.84-0.56,10.4-5.92,9.84-12c-0.479-5.84-6-10.4-11.76-9.84 c-6,0.48-10.48,5.92-10,11.76c0.24,2.88,1.52,5.6,3.84,7.52C51.041,54.688,53.922,55.568,56.722,55.328z"/></g></svg>